<?xml version="1.0" standalone="no"?>
<!DOCTYPE svg PUBLIC "-//W3C//DTD SVG 20010904//EN"
 "http://www.w3.org/TR/2001/REC-SVG-20010904/DTD/svg10.dtd">
<svg version="1.0" xmlns="http://www.w3.org/2000/svg"
 width="100.000000pt" height="100.000000pt" viewBox="0 0 100.000000 100.000000"
 preserveAspectRatio="xMidYMid meet">
<metadata>
Created by potrace 1.11, written by Peter Selinger 2001-2013
</metadata>
<g transform="translate(0.000000,100.000000) scale(0.100000,-0.100000)"
fill="#000000" stroke="none">
<path d="M137 828 c-22 -23 -23 -28 -22 -260 0 -208 3 -240 17 -254 14 -14 39
-17 140 -18 l123 -1 0 -29 c0 -18 -7 -32 -18 -37 -9 -5 -25 -13 -35 -18 -20
-10 -28 -39 -14 -53 12 -12 326 -18 360 -6 34 12 30 56 -5 64 -50 11 -53 13
-53 47 l0 33 122 1 c168 0 158 -17 158 269 0 234 -5 268 -44 278 -11 3 -175 6
-364 6 -342 0 -343 0 -365 -22z m737 -19 c8 -12 11 -71 11 -190 l0 -174 -373
-3 -372 -2 0 183 c0 109 4 187 10 193 6 6 140 10 361 9 313 0 352 -2 363 -16z
m7 -388 c1 -3 2 -21 4 -39 5 -63 10 -62 -370 -62 -189 0 -350 3 -359 6 -12 4
-16 20 -16 54 l0 48 370 0 c204 0 370 -3 371 -7z m-280 -130 c1 -3 2 -19 3
-34 4 -34 23 -55 56 -60 13 -2 26 -9 28 -16 3 -9 -39 -11 -167 -9 -106 2 -171
7 -171 13 0 6 29 10 65 11 36 0 68 4 72 7 3 4 -16 7 -42 7 -38 0 -46 3 -37 12
7 7 12 26 12 43 l0 31 90 0 c50 1 90 -2 91 -5z"/>
<path d="M508 803 c7 -3 16 -2 19 1 4 3 -2 6 -13 5 -11 0 -14 -3 -6 -6z"/>
<path d="M159 773 c-5 -34 -3 -163 3 -163 4 0 7 24 7 53 -1 28 -1 64 0 78 l1
27 335 -1 c185 0 338 3 342 6 3 4 -150 7 -340 7 -191 0 -348 -3 -348 -7z"/>
<path d="M861 725 c-2 -11 -3 -73 -4 -137 l0 -118 -344 0 c-222 0 -343 4 -343
10 0 6 -4 10 -8 10 -13 0 -10 -30 2 -31 6 0 166 -1 355 -2 232 -1 345 1 348 9
2 5 2 71 0 145 -1 73 -4 125 -6 114z"/>
<path d="M160 570 c-8 -26 -7 -41 2 -32 6 6 8 16 5 24 -3 7 -6 11 -7 8z"/>
<path d="M495 394 c-18 -19 -4 -44 25 -44 23 0 34 28 19 46 -15 18 -24 18 -44
-2z m38 -20 c-7 -18 -33 -18 -33 -1 0 19 10 27 25 20 8 -2 11 -11 8 -19z"/>
</g>
</svg>
