<?xml version="1.0" standalone="no"?>
<!DOCTYPE svg PUBLIC "-//W3C//DTD SVG 20010904//EN"
 "http://www.w3.org/TR/2001/REC-SVG-20010904/DTD/svg10.dtd">
<svg version="1.0" xmlns="http://www.w3.org/2000/svg"
 width="512.000000pt" height="512.000000pt" viewBox="0 0 512.000000 512.000000"
 preserveAspectRatio="xMidYMid meet">
<metadata>
Created by potrace 1.11, written by Peter Selinger 2001-2013
</metadata>
<g transform="translate(0.000000,512.000000) scale(0.100000,-0.100000)"
fill="#000000" stroke="none">
<path d="M2270 5001 c-157 -66 -296 -124 -310 -129 -71 -29 -229 -95 -255
-106 -16 -8 -61 -26 -99 -41 -38 -15 -77 -31 -85 -35 -9 -5 -155 -66 -326
-136 -170 -69 -323 -132 -340 -139 -67 -29 -430 -180 -435 -181 -3 0 -16 -5
-30 -11 -14 -6 -92 -39 -175 -73 -82 -34 -154 -66 -160 -71 -15 -15 -15 -3027
0 -3039 6 -5 63 -30 126 -56 63 -25 130 -53 149 -61 57 -25 87 -38 260 -108
295 -121 695 -286 715 -295 11 -5 223 -93 470 -195 248 -103 525 -218 617
-256 l168 -70 173 72 c197 82 288 120 697 289 162 67 314 131 337 141 23 10
48 19 55 19 8 0 18 4 24 8 5 5 41 21 79 37 39 15 84 34 100 41 76 33 225 94
270 112 56 22 403 165 450 186 17 7 98 41 181 75 l150 62 0 1517 -1 1516 -35
17 c-47 23 -94 43 -160 69 -30 12 -68 28 -85 35 -16 8 -109 46 -205 85 -96 39
-184 75 -195 80 -11 4 -46 20 -78 34 -32 14 -60 26 -62 26 -5 0 -593 243 -630
260 -40 18 -1065 440 -1068 440 -1 -1 -130 -54 -287 -119z"/>
</g>
</svg>
